<?xml version="1.0" standalone="no"?>
<!DOCTYPE svg PUBLIC "-//W3C//DTD SVG 20010904//EN"
 "http://www.w3.org/TR/2001/REC-SVG-20010904/DTD/svg10.dtd">
<svg version="1.0" xmlns="http://www.w3.org/2000/svg"
 width="2560.000000pt" height="2560.000000pt" viewBox="0 0 2560.000000 2560.000000"
 preserveAspectRatio="xMidYMid meet">

<g transform="translate(0.000000,2560.000000) scale(0.100000,-0.100000)"
fill="#000000" stroke="none">
<path d="M11308 10201 c-105 -42 -162 -97 -201 -194 -20 -51 -21 -65 -18 -587
1 -329 6 -556 13 -590 30 -158 146 -254 323 -267 138 -10 262 39 332 130 56
75 68 131 68 322 l0 170 -115 0 -115 0 -5 -157 c-6 -180 -15 -203 -89 -227
-52 -17 -103 -1 -135 42 -21 28 -21 35 -21 547 0 510 0 519 21 547 30 40 89
58 139 41 67 -23 79 -51 85 -196 l5 -127 119 -3 118 -3 -4 148 c-4 124 -8 158
-28 207 -28 73 -83 134 -158 178 -54 31 -63 32 -172 35 -94 3 -123 0 -162 -16z"/>
<path d="M13105 10205 c-115 -30 -194 -98 -237 -204 -23 -55 -23 -63 -26 -576
-3 -544 0 -599 40 -680 63 -125 209 -196 376 -182 151 12 263 89 313 213 l24
59 3 525 c3 463 1 533 -14 593 -29 120 -110 210 -217 242 -77 23 -191 27 -262
10z m186 -241 c53 -27 54 -37 54 -586 0 -498 0 -507 -21 -535 -11 -15 -40 -35
-62 -43 -37 -13 -47 -13 -84 0 -22 8 -51 28 -62 43 -21 28 -21 40 -24 510 -2
265 0 501 3 524 14 93 104 133 196 87z"/>
<path d="M14647 10184 c-4 -4 -7 -364 -7 -801 l0 -793 125 0 125 0 2 323 3
322 120 6 c140 7 195 24 257 78 91 81 122 198 115 431 -6 202 -28 269 -112
347 -83 79 -114 86 -390 91 -127 2 -233 0 -238 -4z m413 -237 c62 -22 75 -60
75 -227 0 -226 -18 -253 -163 -248 l-77 3 -3 230 c-1 126 0 235 2 242 7 17
118 16 166 0z"/>
<path d="M17988 8161 c-109 -36 -183 -110 -218 -220 -19 -60 -20 -90 -20 -585
0 -550 2 -572 48 -662 22 -43 83 -104 129 -127 74 -39 217 -51 325 -28 106 23
201 114 240 231 17 49 23 1019 8 1110 -22 133 -95 227 -209 271 -79 31 -225
36 -303 10z m198 -227 c70 -33 69 -26 72 -549 2 -258 0 -489 -3 -512 -8 -56
-46 -100 -97 -113 -35 -10 -46 -8 -86 12 -36 17 -50 31 -59 58 -9 25 -12 173
-12 525 -1 549 -2 542 69 577 44 22 72 23 116 2z"/>
<path d="M11329 8156 c-99 -28 -180 -111 -216 -221 -15 -43 -18 -114 -21 -539
-3 -507 1 -585 37 -670 28 -64 92 -129 159 -162 53 -26 66 -28 177 -29 116 0
123 1 187 33 79 38 128 91 160 171 23 55 23 63 26 581 3 380 0 540 -8 580 -25
114 -90 199 -185 242 -40 18 -71 23 -160 25 -69 1 -127 -3 -156 -11z m212
-223 c63 -37 64 -42 67 -538 4 -505 -1 -565 -48 -610 -58 -55 -171 -39 -208
29 -15 28 -17 81 -20 522 -3 544 -2 551 57 591 41 28 110 31 152 6z"/>
<path d="M12900 7355 l0 -795 115 0 115 0 2 343 3 342 75 -1 c88 0 131 -19
157 -67 15 -27 18 -71 23 -307 3 -151 10 -283 14 -292 7 -16 24 -18 128 -18
l120 0 -7 23 c-5 12 -11 148 -15 302 -8 310 -16 357 -72 421 -17 19 -45 42
-62 51 -28 15 -29 17 -12 27 116 68 162 216 138 444 -28 265 -120 322 -518
322 l-204 0 0 -795z m424 551 c54 -35 61 -59 61 -206 0 -151 -7 -173 -68 -211
-26 -16 -47 -19 -107 -17 l-75 3 -3 219 c-2 169 1 222 10 228 21 15 154 3 182
-16z"/>
<path d="M15915 8138 c-3 -7 -4 -366 -3 -798 l3 -785 110 0 110 0 3 558 c1
306 6 557 10 557 4 0 40 -129 81 -288 40 -158 86 -334 101 -392 15 -58 44
-170 64 -250 54 -212 33 -190 181 -190 l125 0 0 800 0 800 -110 0 -110 0 0
-455 c0 -250 -4 -455 -8 -455 -4 0 -39 123 -77 273 -38 149 -90 353 -115 452
l-47 180 -157 3 c-120 2 -158 0 -161 -10z"/>
<path d="M19470 8035 l0 -115 130 0 130 0 0 -669 c0 -368 3 -676 6 -685 5 -13
26 -16 125 -16 l119 0 2 683 3 682 133 3 132 3 0 114 0 115 -390 0 -390 0 0
-115z"/>
</g>
</svg>
